=== Extraordinary Measures 2010 DVDRip XviD-Dubby ===
 
http://www.imdb.com/title/tt1244659/
Genre: Drama
Ratings: 6.2/10 712 votes
Director: Tom Vaughan

Source: REAL BOW DVDR
Size: 700 MiB

=== Video Data ===

General
Complete name                    : Extraordinary Measures 2010 DVDRip XviD-Dubby.avi
Format                           : AVI
Format/Info                      : Audio Video Interleave
File size                        : 700 MiB
Duration                         : 1h 46mn
Overall bit rate                 : 920 Kbps
Writing application              : VirtualDubMod 1.5.10.2 (build 2540/release)
Writing library                  : VirtualDubMod build 2540/release

Video
ID                               : 0
Format                           : MPEG-4 Visual
Format profile                   : Advanced Simple@L5
Format settings, BVOP            : Yes
Format settings, QPel            : No
Format settings, GMC             : No warppoints
Format settings, Matrix          : Default (H.263)
Muxing mode                      : Packed bitstream
Codec ID                         : XVID
Codec ID/Hint                    : XviD
Duration                         : 1h 46mn
Bit rate                         : 782 Kbps
Width                            : 608 pixels
Height                           : 336 pixels
Display aspect ratio             : 16:9
Frame rate                       : 23.976 fps
Resolution                       : 8 bits
Colorimetry                      : 4:2:0
Scan type                        : Progressive
Bits/(Pixel*Frame)               : 0.160
Stream size                      : 595 MiB (85%)
Writing library                  : XviD 1.2.1 (UTC 2008-12-04)

=== Audio Data ===

ID                               : 1
Format                           : MPEG Audio
Format version                   : Version 1
Format profile                   : Layer 3
Mode                             : Joint stereo
Format_Settings_ModeExtension    : MS Stereo
Codec ID                         : 55
Codec ID/Hint                    : MP3
Duration                         : 1h 46mn
Bit rate mode                    : Constant
Bit rate                         : 128 Kbps
Channel(s)                       : 2 channels
Sampling rate                    : 48.0 KHz
Stream size                      : 97.4 MiB (14%)
Alignment                        : Aligned on interleaves
Interleave, duration             : 42 ms (1.00 video frame)
Interleave, preload duration     : 504 ms

=== Cast ===

Brendan Fraser	... 	John Crowley
Harrison Ford	... 	Dr. Robert Stonehill
Keri Russell	... 	Aileen Crowley
Meredith Droeger... 	Megan Crowley
Diego Velazquez	... 	Patrick Crowley
Sam Hall	... 	John Crowley, Jr. (as Sam M. Hall)
Jared Harris	... 	Dr. Kent Webber
Patrick Bauchau	... 	CEO Erich Loring
Alan Ruck	... 	Pete Sutphen
David Clennon	... 	Dr. Renzler
Dee Wallace	... 	Sal
Courtney B. Vance... 	Marcus Temple
Ayanna Berkshire... 	Wendy Temple
P.J. Byrne	... 	Dr. Preston
Andrea White	... 	Dr. Allegria

=== Plot ===

A drama centered on the efforts of John and Aileen Crowley
to find a researcher who might have a cure for their two 
children's rare genetic disorder...